<svg xmlns="http://www.w3.org/2000/svg" xmlns:xlink="http://www.w3.org/1999/xlink" width="500" zoomAndPan="magnify" viewBox="0 0 375 374.999991" height="500" preserveAspectRatio="xMidYMid meet" version="1.0"><path fill="#ffffff" d="M 54.0625 29.570312 L 320.371094 29.570312 C 321.25 29.570312 322.125 29.613281 323 29.699219 C 323.875 29.785156 324.742188 29.914062 325.601562 30.085938 C 326.464844 30.257812 327.3125 30.46875 328.152344 30.722656 C 328.996094 30.980469 329.820312 31.273438 330.632812 31.609375 C 331.441406 31.945312 332.234375 32.320312 333.007812 32.734375 C 333.785156 33.148438 334.535156 33.601562 335.265625 34.089844 C 335.996094 34.574219 336.699219 35.097656 337.378906 35.65625 C 338.058594 36.210938 338.707031 36.800781 339.328125 37.421875 C 339.949219 38.042969 340.539062 38.691406 341.09375 39.371094 C 341.652344 40.050781 342.171875 40.753906 342.660156 41.484375 C 343.148438 42.214844 343.601562 42.964844 344.015625 43.742188 C 344.429688 44.515625 344.804688 45.308594 345.140625 46.117188 C 345.476562 46.929688 345.769531 47.753906 346.023438 48.59375 C 346.28125 49.4375 346.492188 50.285156 346.664062 51.148438 C 346.835938 52.007812 346.964844 52.875 347.050781 53.75 C 347.136719 54.625 347.179688 55.5 347.179688 56.378906 L 347.179688 322.683594 C 347.179688 323.5625 347.136719 324.4375 347.050781 325.3125 C 346.964844 326.1875 346.835938 327.054688 346.664062 327.914062 C 346.492188 328.777344 346.28125 329.625 346.023438 330.46875 C 345.769531 331.308594 345.476562 332.132812 345.140625 332.945312 C 344.804688 333.753906 344.429688 334.546875 344.015625 335.320312 C 343.601562 336.097656 343.148438 336.847656 342.660156 337.578125 C 342.171875 338.308594 341.652344 339.011719 341.09375 339.691406 C 340.539062 340.371094 339.949219 341.019531 339.328125 341.640625 C 338.707031 342.261719 338.058594 342.851562 337.378906 343.40625 C 336.699219 343.964844 335.996094 344.488281 335.265625 344.972656 C 334.535156 345.460938 333.785156 345.914062 333.007812 346.328125 C 332.234375 346.742188 331.441406 347.117188 330.632812 347.453125 C 329.820312 347.789062 328.996094 348.082031 328.152344 348.339844 C 327.3125 348.59375 326.464844 348.804688 325.601562 348.976562 C 324.742188 349.148438 323.875 349.277344 323 349.363281 C 322.125 349.449219 321.25 349.492188 320.371094 349.492188 L 54.0625 349.492188 C 53.1875 349.492188 52.308594 349.449219 51.4375 349.363281 C 50.5625 349.277344 49.695312 349.148438 48.835938 348.976562 C 47.972656 348.804688 47.121094 348.59375 46.28125 348.339844 C 45.441406 348.082031 44.617188 347.789062 43.804688 347.453125 C 42.996094 347.117188 42.203125 346.742188 41.425781 346.328125 C 40.652344 345.914062 39.902344 345.460938 39.171875 344.972656 C 38.441406 344.488281 37.738281 343.964844 37.058594 343.40625 C 36.378906 342.851562 35.730469 342.261719 35.109375 341.640625 C 34.488281 341.019531 33.898438 340.371094 33.34375 339.691406 C 32.785156 339.011719 32.261719 338.308594 31.773438 337.578125 C 31.289062 336.847656 30.835938 336.097656 30.421875 335.320312 C 30.007812 334.546875 29.632812 333.753906 29.296875 332.945312 C 28.960938 332.132812 28.667969 331.308594 28.410156 330.46875 C 28.15625 329.625 27.945312 328.777344 27.773438 327.914062 C 27.601562 327.054688 27.472656 326.1875 27.386719 325.3125 C 27.300781 324.4375 27.257812 323.5625 27.257812 322.683594 L 27.257812 56.378906 C 27.257812 55.5 27.300781 54.625 27.386719 53.75 C 27.472656 52.875 27.601562 52.007812 27.773438 51.148438 C 27.945312 50.285156 28.15625 49.4375 28.410156 48.59375 C 28.667969 47.753906 28.960938 46.929688 29.296875 46.117188 C 29.632812 45.308594 30.007812 44.515625 30.421875 43.742188 C 30.835938 42.964844 31.289062 42.214844 31.773438 41.484375 C 32.261719 40.753906 32.785156 40.050781 33.34375 39.371094 C 33.898438 38.691406 34.488281 38.042969 35.109375 37.421875 C 35.730469 36.800781 36.378906 36.210938 37.058594 35.65625 C 37.738281 35.097656 38.441406 34.574219 39.171875 34.089844 C 39.902344 33.601562 40.652344 33.148438 41.425781 32.734375 C 42.203125 32.320312 42.996094 31.945312 43.804688 31.609375 C 44.617188 31.273438 45.441406 30.980469 46.28125 30.722656 C 47.121094 30.46875 47.972656 30.257812 48.835938 30.085938 C 49.695312 29.914062 50.5625 29.785156 51.4375 29.699219 C 52.308594 29.613281 53.1875 29.570312 54.0625 29.570312 Z M 54.0625 29.570312 " fill-opacity="1" fill-rule="nonzero"/><path fill="#bd1920" d="M 280.433594 114.15625 L 265.125 98.460938 C 264.292969 97.605469 263.394531 96.824219 262.429688 96.121094 C 261.464844 95.414062 260.453125 94.792969 259.382812 94.257812 C 258.316406 93.722656 257.214844 93.277344 256.074219 92.925781 C 254.933594 92.570312 253.769531 92.316406 252.585938 92.15625 C 251.402344 92 250.214844 91.941406 249.019531 91.980469 C 247.828125 92.019531 246.644531 92.15625 245.476562 92.394531 C 244.304688 92.628906 243.160156 92.960938 242.046875 93.390625 C 240.929688 93.816406 239.859375 94.332031 238.832031 94.9375 L 209.492188 112.234375 C 208.074219 113.066406 206.78125 114.070312 205.625 115.238281 C 204.464844 116.410156 203.476562 117.710938 202.660156 119.140625 C 201.84375 120.570312 201.222656 122.082031 200.800781 123.675781 C 200.378906 125.269531 200.171875 126.886719 200.171875 128.535156 L 200.171875 161.332031 L 173.941406 184.421875 C 173.398438 183.851562 172.824219 183.304688 172.226562 182.789062 C 171.628906 182.273438 171.003906 181.789062 170.359375 181.332031 C 169.710938 180.875 169.046875 180.453125 168.359375 180.0625 C 167.671875 179.667969 166.96875 179.3125 166.246094 178.988281 C 165.523438 178.667969 164.789062 178.378906 164.039062 178.128906 C 163.289062 177.878906 162.527344 177.664062 161.757812 177.488281 C 160.988281 177.308594 160.210938 177.171875 159.425781 177.070312 C 158.640625 176.96875 157.851562 176.902344 157.0625 176.878906 C 156.273438 176.851562 155.484375 176.867188 154.695312 176.917969 C 153.90625 176.96875 153.121094 177.058594 152.339844 177.1875 C 151.558594 177.316406 150.789062 177.480469 150.023438 177.683594 C 149.257812 177.886719 148.507812 178.125 147.765625 178.402344 C 147.023438 178.679688 146.296875 178.988281 145.585938 179.335938 C 144.878906 179.683594 144.183594 180.0625 143.511719 180.476562 C 142.835938 180.890625 142.183594 181.335938 141.554688 181.8125 C 140.925781 182.289062 140.320312 182.796875 139.738281 183.332031 L 105.179688 215.363281 C 104.136719 216.320312 103.144531 217.332031 102.207031 218.394531 C 101.265625 219.453125 100.382812 220.5625 99.558594 221.714844 C 98.734375 222.863281 97.96875 224.054688 97.265625 225.285156 C 96.5625 226.515625 95.921875 227.78125 95.347656 229.078125 C 94.773438 230.375 94.269531 231.695312 93.832031 233.042969 C 93.394531 234.390625 93.027344 235.757812 92.726562 237.144531 C 92.429688 238.53125 92.203125 239.925781 92.050781 241.335938 C 91.898438 242.746094 91.816406 244.160156 91.804688 245.574219 C 91.796875 246.992188 91.859375 248.40625 91.996094 249.816406 C 92.132812 251.230469 92.339844 252.628906 92.621094 254.019531 C 92.902344 255.40625 93.25 256.78125 93.671875 258.132812 C 94.09375 259.488281 94.582031 260.816406 95.140625 262.117188 C 95.695312 263.421875 96.320312 264.691406 97.007812 265.933594 C 97.695312 267.171875 98.445312 268.371094 99.253906 269.535156 C 100.066406 270.695312 100.933594 271.816406 101.859375 272.886719 C 102.785156 273.960938 103.765625 274.984375 104.796875 275.957031 C 105.753906 276.859375 106.753906 277.714844 107.792969 278.519531 C 108.832031 279.324219 109.90625 280.082031 111.019531 280.785156 C 112.128906 281.488281 113.269531 282.140625 114.445312 282.734375 C 115.617188 283.328125 116.816406 283.867188 118.042969 284.347656 C 119.265625 284.828125 120.511719 285.25 121.773438 285.613281 C 123.039062 285.976562 124.320312 286.277344 125.613281 286.515625 C 126.90625 286.757812 128.207031 286.9375 129.519531 287.050781 C 130.828125 287.167969 132.140625 287.222656 133.457031 287.214844 C 134.773438 287.203125 136.085938 287.132812 137.394531 287 C 138.703125 286.863281 140 286.667969 141.292969 286.410156 C 142.582031 286.152344 143.855469 285.835938 145.117188 285.457031 C 146.375 285.078125 147.613281 284.636719 148.832031 284.140625 C 150.050781 283.644531 151.242188 283.089844 152.40625 282.480469 C 153.574219 281.867188 154.707031 281.203125 155.808594 280.484375 C 156.910156 279.765625 157.976562 278.996094 159.003906 278.175781 C 160.03125 277.355469 161.019531 276.488281 161.964844 275.574219 L 186.082031 252.480469 C 186.898438 251.699219 187.6875 250.882812 188.441406 250.039062 C 189.195312 249.195312 189.917969 248.324219 190.605469 247.421875 C 191.289062 246.519531 191.941406 245.59375 192.554688 244.640625 C 193.167969 243.691406 193.742188 242.714844 194.28125 241.71875 C 194.820312 240.722656 195.316406 239.703125 195.773438 238.667969 C 196.230469 237.632812 196.648438 236.578125 197.023438 235.511719 C 197.398438 234.441406 197.730469 233.359375 198.023438 232.265625 C 198.3125 231.171875 198.5625 230.066406 198.765625 228.953125 C 198.96875 227.835938 199.128906 226.714844 199.246094 225.589844 C 199.363281 224.464844 199.433594 223.332031 199.460938 222.199219 C 199.488281 221.070312 199.472656 219.9375 199.410156 218.804688 C 199.351562 217.675781 199.246094 216.546875 199.09375 215.425781 C 198.945312 214.300781 198.753906 213.1875 198.515625 212.078125 C 198.28125 210.972656 198 209.875 197.675781 208.789062 C 197.355469 207.703125 196.988281 206.628906 196.582031 205.574219 C 196.175781 204.515625 195.730469 203.476562 195.242188 202.453125 L 219.933594 181.027344 L 246.292969 181.027344 C 247.746094 181.03125 249.195312 180.925781 250.632812 180.710938 C 252.070312 180.5 253.488281 180.183594 254.878906 179.761719 C 256.273438 179.34375 257.625 178.824219 258.941406 178.203125 C 260.257812 177.582031 261.519531 176.867188 262.730469 176.0625 C 263.941406 175.253906 265.085938 174.363281 266.164062 173.390625 C 267.246094 172.414062 268.246094 171.367188 269.171875 170.242188 C 270.09375 169.121094 270.933594 167.933594 271.679688 166.6875 C 272.429688 165.441406 273.085938 164.148438 273.644531 162.804688 L 284.695312 136.316406 C 285.078125 135.394531 285.390625 134.453125 285.636719 133.484375 C 285.882812 132.519531 286.054688 131.539062 286.15625 130.546875 C 286.257812 129.550781 286.285156 128.558594 286.242188 127.5625 C 286.199219 126.5625 286.082031 125.574219 285.894531 124.597656 C 285.707031 123.617188 285.449219 122.65625 285.121094 121.714844 C 284.789062 120.769531 284.394531 119.859375 283.933594 118.972656 C 283.46875 118.089844 282.945312 117.242188 282.359375 116.4375 C 281.773438 115.628906 281.132812 114.867188 280.433594 114.15625 Z M 168.785156 234.097656 L 143.675781 259.71875 C 143.269531 260.136719 142.839844 260.535156 142.390625 260.910156 C 141.941406 261.285156 141.472656 261.636719 140.988281 261.964844 C 140.503906 262.289062 140.003906 262.59375 139.492188 262.871094 C 138.976562 263.148438 138.449219 263.402344 137.910156 263.625 C 137.367188 263.851562 136.820312 264.046875 136.257812 264.21875 C 135.699219 264.386719 135.132812 264.527344 134.558594 264.640625 C 133.984375 264.753906 133.40625 264.839844 132.824219 264.894531 C 132.242188 264.949219 131.65625 264.972656 131.070312 264.96875 C 130.488281 264.964844 129.902344 264.933594 129.324219 264.871094 C 128.742188 264.808594 128.164062 264.71875 127.589844 264.597656 C 127.019531 264.476562 126.453125 264.328125 125.894531 264.152344 C 125.339844 263.976562 124.789062 263.769531 124.253906 263.539062 C 123.714844 263.308594 123.191406 263.050781 122.679688 262.765625 C 122.171875 262.480469 121.675781 262.171875 121.195312 261.835938 C 120.714844 261.503906 120.253906 261.144531 119.808594 260.765625 C 119.363281 260.382812 118.9375 259.980469 118.535156 259.558594 C 117.773438 258.753906 117.09375 257.886719 116.496094 256.953125 C 115.898438 256.015625 115.394531 255.035156 114.984375 254.007812 C 114.574219 252.976562 114.265625 251.917969 114.058594 250.828125 C 113.847656 249.738281 113.742188 248.640625 113.742188 247.53125 C 113.742188 246.425781 113.847656 245.324219 114.058594 244.238281 C 114.265625 243.148438 114.574219 242.089844 114.984375 241.058594 C 115.394531 240.03125 115.898438 239.046875 116.496094 238.113281 C 117.09375 237.179688 117.773438 236.3125 118.535156 235.507812 L 143.101562 209.5 C 143.527344 209.050781 143.972656 208.625 144.441406 208.21875 C 144.914062 207.816406 145.402344 207.4375 145.910156 207.085938 C 146.417969 206.734375 146.945312 206.40625 147.488281 206.109375 C 148.03125 205.8125 148.585938 205.542969 149.15625 205.300781 C 149.730469 205.0625 150.308594 204.851562 150.902344 204.671875 C 151.496094 204.492188 152.09375 204.34375 152.703125 204.226562 C 153.3125 204.109375 153.925781 204.023438 154.539062 203.96875 C 155.15625 203.914062 155.777344 203.894531 156.394531 203.90625 C 157.015625 203.914062 157.628906 203.957031 158.246094 204.03125 C 158.859375 204.105469 159.46875 204.214844 160.074219 204.351562 C 160.675781 204.488281 161.269531 204.65625 161.855469 204.859375 C 162.441406 205.058594 163.015625 205.289062 163.578125 205.546875 C 164.140625 205.804688 164.6875 206.09375 165.222656 206.410156 C 165.753906 206.726562 166.269531 207.070312 166.765625 207.441406 C 167.261719 207.808594 167.738281 208.203125 168.191406 208.625 C 168.648438 209.042969 169.082031 209.484375 169.492188 209.949219 C 170.214844 210.789062 170.859375 211.683594 171.414062 212.644531 C 171.972656 213.601562 172.4375 214.601562 172.808594 215.648438 C 173.183594 216.691406 173.453125 217.761719 173.625 218.855469 C 173.800781 219.949219 173.871094 221.050781 173.835938 222.160156 C 173.804688 223.269531 173.671875 224.363281 173.433594 225.445312 C 173.199219 226.53125 172.863281 227.582031 172.433594 228.601562 C 172 229.625 171.476562 230.597656 170.863281 231.519531 C 170.253906 232.445312 169.558594 233.300781 168.785156 234.097656 Z M 249.589844 155.566406 L 223.96875 155.566406 L 223.96875 129.207031 L 248.664062 116.878906 L 261.828125 129.207031 Z M 249.589844 155.566406 " fill-opacity="1" fill-rule="nonzero"/><path fill="#bd1920" d="M 119.464844 153.261719 L 119.464844 116.878906 L 153.125 116.878906 C 153.941406 116.878906 154.753906 116.796875 155.554688 116.636719 C 156.359375 116.476562 157.136719 116.242188 157.894531 115.929688 C 158.648438 115.617188 159.367188 115.230469 160.046875 114.777344 C 160.726562 114.324219 161.355469 113.804688 161.933594 113.226562 C 162.511719 112.648438 163.03125 112.019531 163.484375 111.339844 C 163.9375 110.660156 164.324219 109.941406 164.636719 109.1875 C 164.949219 108.429688 165.183594 107.652344 165.34375 106.847656 C 165.503906 106.046875 165.582031 105.238281 165.582031 104.417969 C 165.582031 103.601562 165.503906 102.789062 165.34375 101.988281 C 165.183594 101.183594 164.949219 100.40625 164.636719 99.652344 C 164.324219 98.894531 163.9375 98.175781 163.484375 97.496094 C 163.03125 96.816406 162.511719 96.1875 161.933594 95.609375 C 161.355469 95.03125 160.726562 94.515625 160.046875 94.058594 C 159.367188 93.605469 158.648438 93.222656 157.894531 92.90625 C 157.136719 92.59375 156.359375 92.359375 155.554688 92.199219 C 154.753906 92.039062 153.941406 91.960938 153.125 91.960938 L 122.378906 91.960938 C 121.382812 91.960938 120.390625 92.007812 119.398438 92.105469 C 118.410156 92.203125 117.425781 92.347656 116.449219 92.542969 C 115.472656 92.738281 114.507812 92.980469 113.554688 93.269531 C 112.601562 93.558594 111.667969 93.890625 110.746094 94.273438 C 109.828125 94.652344 108.929688 95.078125 108.050781 95.546875 C 107.171875 96.019531 106.320312 96.527344 105.492188 97.082031 C 104.664062 97.636719 103.867188 98.226562 103.097656 98.859375 C 102.328125 99.492188 101.589844 100.15625 100.886719 100.863281 C 100.183594 101.566406 99.515625 102.300781 98.882812 103.070312 C 98.253906 103.839844 97.660156 104.640625 97.105469 105.46875 C 96.554688 106.296875 96.042969 107.148438 95.574219 108.027344 C 95.105469 108.902344 94.679688 109.804688 94.296875 110.722656 C 93.917969 111.640625 93.582031 112.578125 93.292969 113.53125 C 93.003906 114.484375 92.761719 115.449219 92.570312 116.425781 C 92.375 117.402344 92.230469 118.382812 92.132812 119.375 C 92.035156 120.363281 91.984375 121.359375 91.984375 122.355469 L 91.984375 153.261719 C 91.984375 154.167969 92.070312 155.066406 92.246094 155.957031 C 92.417969 156.847656 92.679688 157.714844 93.027344 158.550781 C 93.371094 159.390625 93.796875 160.1875 94.300781 160.945312 C 94.804688 161.699219 95.375 162.398438 96.015625 163.042969 C 96.65625 163.683594 97.355469 164.257812 98.109375 164.761719 C 98.863281 165.269531 99.660156 165.695312 100.5 166.042969 C 101.335938 166.390625 102.203125 166.652344 103.089844 166.828125 C 103.980469 167.007812 104.878906 167.097656 105.789062 167.097656 C 106.691406 167.085938 107.582031 166.992188 108.46875 166.808594 C 109.351562 166.625 110.207031 166.355469 111.039062 166.003906 C 111.871094 165.652344 112.660156 165.226562 113.40625 164.71875 C 114.152344 164.210938 114.84375 163.636719 115.476562 162.996094 C 116.113281 162.355469 116.679688 161.65625 117.175781 160.90625 C 117.671875 160.152344 118.09375 159.359375 118.433594 158.523438 C 118.777344 157.6875 119.035156 156.828125 119.207031 155.941406 C 119.378906 155.054688 119.464844 154.164062 119.464844 153.261719 Z M 119.464844 153.261719 " fill-opacity="1" fill-rule="nonzero"/><path fill="#bd1920" d="M 256.894531 225.867188 L 256.894531 262.28125 L 223.328125 262.28125 C 222.511719 262.28125 221.699219 262.363281 220.898438 262.519531 C 220.097656 262.679688 219.316406 262.917969 218.5625 263.230469 C 217.804688 263.542969 217.085938 263.925781 216.40625 264.382812 C 215.726562 264.835938 215.097656 265.351562 214.519531 265.929688 C 213.941406 266.507812 213.425781 267.136719 212.96875 267.820312 C 212.515625 268.5 212.132812 269.214844 211.820312 269.972656 C 211.503906 270.726562 211.269531 271.507812 211.109375 272.308594 C 210.949219 273.113281 210.871094 273.921875 210.871094 274.742188 C 210.871094 275.558594 210.953125 276.367188 211.117188 277.167969 C 211.277344 277.96875 211.515625 278.746094 211.828125 279.5 C 212.140625 280.253906 212.527344 280.96875 212.980469 281.648438 C 213.4375 282.324219 213.953125 282.953125 214.53125 283.527344 C 215.109375 284.105469 215.738281 284.621094 216.417969 285.074219 C 217.097656 285.527344 217.8125 285.910156 218.570312 286.222656 C 219.324219 286.535156 220.101562 286.769531 220.902344 286.929688 C 221.703125 287.085938 222.511719 287.167969 223.328125 287.167969 L 254.269531 287.167969 C 255.261719 287.167969 256.253906 287.117188 257.246094 287.019531 C 258.234375 286.921875 259.21875 286.777344 260.195312 286.582031 C 261.171875 286.386719 262.136719 286.148438 263.085938 285.859375 C 264.039062 285.570312 264.976562 285.234375 265.894531 284.851562 C 266.8125 284.472656 267.710938 284.046875 268.589844 283.578125 C 269.464844 283.109375 270.320312 282.597656 271.144531 282.042969 C 271.972656 281.488281 272.769531 280.898438 273.539062 280.265625 C 274.308594 279.632812 275.046875 278.964844 275.75 278.261719 C 276.453125 277.558594 277.117188 276.820312 277.75 276.050781 C 278.378906 275.28125 278.972656 274.484375 279.523438 273.65625 C 280.078125 272.828125 280.585938 271.976562 281.054688 271.097656 C 281.523438 270.21875 281.949219 269.320312 282.328125 268.402344 C 282.707031 267.480469 283.042969 266.546875 283.328125 265.59375 C 283.617188 264.640625 283.859375 263.675781 284.050781 262.699219 C 284.246094 261.726562 284.390625 260.742188 284.488281 259.75 C 284.582031 258.761719 284.628906 257.769531 284.628906 256.773438 L 284.628906 225.867188 C 284.628906 224.960938 284.542969 224.0625 284.363281 223.171875 C 284.1875 222.285156 283.925781 221.421875 283.578125 220.582031 C 283.230469 219.746094 282.808594 218.949219 282.304688 218.199219 C 281.800781 217.445312 281.226562 216.746094 280.585938 216.105469 C 279.945312 215.464844 279.25 214.890625 278.496094 214.390625 C 277.742188 213.886719 276.945312 213.460938 276.109375 213.113281 C 275.269531 212.765625 274.40625 212.503906 273.519531 212.328125 C 272.628906 212.152344 271.730469 212.0625 270.824219 212.0625 C 269.914062 212.054688 269.011719 212.136719 268.113281 212.304688 C 267.21875 212.476562 266.347656 212.734375 265.503906 213.078125 C 264.660156 213.417969 263.855469 213.84375 263.09375 214.34375 C 262.335938 214.847656 261.628906 215.417969 260.980469 216.058594 C 260.335938 216.703125 259.757812 217.402344 259.246094 218.15625 C 258.738281 218.914062 258.308594 219.710938 257.957031 220.554688 C 257.605469 221.394531 257.339844 222.261719 257.164062 223.15625 C 256.984375 224.050781 256.894531 224.953125 256.894531 225.867188 Z M 256.894531 225.867188 " fill-opacity="1" fill-rule="nonzero"/></svg>