<svg xmlns="http://www.w3.org/2000/svg" xmlns:v="https://vecta.io/nano" width="1600" viewBox="0 0 1200 412.5" height="550" preserveAspectRatio="xMidYMid meet"><defs><filter x="0%" y="0%" width="100%" height="100%" id="A"></filter><filter x="0%" y="0%" width="100%" height="100%" id="B"></filter><clipPath id="C"><path d="M.727 0H453.18v412H.727zm0 0" clip-rule="nonzero"></path></clipPath><mask id="D"><g filter="url(#A)"><g filter="url(#B)" transform="matrix(.600834 0 0 .598853 -.771774 -7.657134)"><image width="2400" height="713" preserveAspectRatio="xMidYMid meet"></image></g></g></mask><path id="E" d="M618.266 53.876v25.25h-43.437v25.078h41.609v25.25h-41.609v25.391h43.438v25.234h-72.203V53.876zm0 0"></path></defs><g clip-path="url(#C)"><g mask="url(#D)"><g transform="matrix(.600834 0 0 .598853 -.771774 -7.657134)"><image width="2400" height="713" preserveAspectRatio="xMidYMid meet"></image></g></g></g><g fill="#222"><path d="M532.307 53.876v25.25h-44.203v25.078h40.844v25.25h-40.844v50.625h-28.766V53.876zm0 0"></path><use href="#E"></use><path d="M634.777 53.876h36.563c17.539 0 32.531 5.996 44.969 17.984 12.445 11.98 18.672 26.996 18.672 45.047 0 18.148-6.199 33.215-18.594 45.203-12.387 11.98-27.402 17.969-45.047 17.969h-36.562zm28.766 100.5h4.438c10.5 0 19.086-3.539 25.766-10.625 6.688-7.094 10.078-15.988 10.172-26.687 0-10.707-3.34-19.629-10.016-26.766-6.68-7.145-15.32-10.719-25.922-10.719h-4.437zm0 0"></path><use href="#E" x="201.595"></use><path d="M836.372 53.876h45.125c12.133 0 22.023 3.242 29.672 9.719 7.656 6.48 11.484 15.734 11.484 27.766 0 9.281-2.324 17.059-6.969 23.328-4.637 6.273-10.934 10.684-18.891 13.234l43.453 52.156h-36.562l-38.547-49.875v49.875h-28.766zm28.766 55.984h3.359c2.656 0 4.898-.047 6.734-.141 1.832-.102 3.922-.461 6.266-1.078 2.352-.613 4.242-1.477 5.672-2.594 1.426-1.125 2.648-2.754 3.672-4.891 1.02-2.145 1.531-4.75 1.531-7.812s-.512-5.66-1.531-7.797c-1.023-2.145-2.246-3.773-3.672-4.891-1.43-1.125-3.32-1.992-5.672-2.609-2.344-.613-4.434-.969-6.266-1.062-1.836-.102-4.078-.156-6.734-.156h-3.359zm0 0"></path><path d="M1009.982 53.876l50.937 126.203h-30.891l-9.328-25.234h-48.031l-9.344 25.234h-30.891l50.938-126.203zm.922 75.719l-14.078-36.703h-.297l-14.078 36.703zm83.667-75.719v100.969h43.438v25.234h-72.203V53.876zm0 0"></path></g><path d="M521.777 223.447v22.797H481.84V268.9h36.906v22.813H481.84v45.734h-25.969v-114zm38.397 0v114h-25.969v-114zm123.255 114h-33.578l-26.937-38.828-26.953 38.828h-32.203l43.125-61.359-35.937-52.641h30.953l21.016 31.094 21-31.094h32.328l-37.312 52.641zm0 0" fill="#bf1a21"></path></svg>