<svg xmlns="http://www.w3.org/2000/svg" xmlns:xlink="http://www.w3.org/1999/xlink" width="1600" zoomAndPan="magnify" viewBox="0 0 1200 412.499988" height="550" preserveAspectRatio="xMidYMid meet" version="1.0"><defs><g/></defs><path fill="#bd1920" d="M 68.71875 19.503906 L 383.1875 19.503906 C 384.222656 19.503906 385.257812 19.554688 386.289062 19.65625 C 387.320312 19.757812 388.34375 19.910156 389.363281 20.113281 C 390.378906 20.316406 391.382812 20.566406 392.375 20.867188 C 393.367188 21.167969 394.34375 21.515625 395.300781 21.914062 C 396.257812 22.308594 397.195312 22.75 398.109375 23.238281 C 399.023438 23.726562 399.910156 24.261719 400.773438 24.835938 C 401.632812 25.410156 402.464844 26.027344 403.265625 26.683594 C 404.070312 27.339844 404.835938 28.035156 405.570312 28.769531 C 406.300781 29.5 406.996094 30.269531 407.65625 31.066406 C 408.3125 31.867188 408.929688 32.699219 409.503906 33.5625 C 410.082031 34.421875 410.613281 35.308594 411.101562 36.222656 C 411.589844 37.136719 412.035156 38.070312 412.429688 39.027344 C 412.828125 39.984375 413.175781 40.960938 413.476562 41.953125 C 413.777344 42.941406 414.03125 43.945312 414.230469 44.960938 C 414.433594 45.976562 414.585938 47 414.6875 48.03125 C 414.789062 49.0625 414.839844 50.097656 414.839844 51.132812 L 414.839844 365.324219 C 414.839844 366.359375 414.789062 367.390625 414.6875 368.421875 C 414.585938 369.453125 414.433594 370.476562 414.230469 371.492188 C 414.03125 372.507812 413.777344 373.511719 413.476562 374.503906 C 413.175781 375.496094 412.828125 376.46875 412.429688 377.425781 C 412.035156 378.382812 411.589844 379.320312 411.101562 380.230469 C 410.613281 381.144531 410.082031 382.03125 409.503906 382.894531 C 408.929688 383.753906 408.3125 384.585938 407.65625 385.386719 C 406.996094 386.1875 406.300781 386.953125 405.570312 387.6875 C 404.835938 388.417969 404.070312 389.113281 403.265625 389.769531 C 402.464844 390.429688 401.632812 391.042969 400.773438 391.621094 C 399.910156 392.195312 399.023438 392.726562 398.109375 393.214844 C 397.195312 393.703125 396.257812 394.144531 395.300781 394.542969 C 394.34375 394.9375 393.367188 395.289062 392.375 395.589844 C 391.382812 395.890625 390.378906 396.140625 389.363281 396.34375 C 388.34375 396.542969 387.320312 396.695312 386.289062 396.796875 C 385.257812 396.898438 384.222656 396.949219 383.1875 396.949219 L 68.71875 396.949219 C 67.683594 396.949219 66.648438 396.898438 65.617188 396.796875 C 64.585938 396.695312 63.5625 396.542969 62.546875 396.34375 C 61.527344 396.140625 60.523438 395.890625 59.53125 395.589844 C 58.539062 395.289062 57.566406 394.9375 56.605469 394.542969 C 55.648438 394.144531 54.714844 393.703125 53.796875 393.214844 C 52.882812 392.726562 51.996094 392.195312 51.132812 391.621094 C 50.273438 391.042969 49.441406 390.429688 48.640625 389.769531 C 47.835938 389.113281 47.070312 388.417969 46.335938 387.6875 C 45.605469 386.953125 44.910156 386.1875 44.25 385.386719 C 43.59375 384.585938 42.976562 383.753906 42.402344 382.894531 C 41.824219 382.03125 41.292969 381.144531 40.804688 380.230469 C 40.316406 379.320312 39.871094 378.382812 39.476562 377.425781 C 39.078125 376.46875 38.730469 375.496094 38.429688 374.503906 C 38.128906 373.511719 37.875 372.507812 37.675781 371.492188 C 37.472656 370.476562 37.320312 369.453125 37.21875 368.421875 C 37.117188 367.390625 37.066406 366.359375 37.066406 365.324219 L 37.066406 51.132812 C 37.066406 50.097656 37.117188 49.0625 37.21875 48.03125 C 37.320312 47 37.472656 45.976562 37.675781 44.960938 C 37.875 43.945312 38.128906 42.941406 38.429688 41.953125 C 38.730469 40.960938 39.078125 39.984375 39.476562 39.027344 C 39.871094 38.070312 40.316406 37.136719 40.804688 36.222656 C 41.292969 35.308594 41.824219 34.421875 42.402344 33.5625 C 42.976562 32.699219 43.59375 31.867188 44.25 31.066406 C 44.910156 30.269531 45.605469 29.5 46.335938 28.769531 C 47.070312 28.035156 47.835938 27.339844 48.640625 26.683594 C 49.441406 26.027344 50.273438 25.410156 51.132812 24.835938 C 51.996094 24.261719 52.882812 23.726562 53.796875 23.238281 C 54.714844 22.75 55.648438 22.308594 56.605469 21.914062 C 57.566406 21.515625 58.539062 21.167969 59.53125 20.867188 C 60.523438 20.566406 61.527344 20.316406 62.546875 20.113281 C 63.5625 19.910156 64.585938 19.757812 65.617188 19.65625 C 66.648438 19.554688 67.683594 19.503906 68.71875 19.503906 Z M 68.71875 19.503906 " fill-opacity="1" fill-rule="nonzero"/><path fill="#ffffff" d="M 336.027344 119.296875 L 317.949219 100.78125 C 316.964844 99.773438 315.902344 98.851562 314.765625 98.019531 C 313.628906 97.1875 312.429688 96.457031 311.167969 95.824219 C 309.910156 95.191406 308.605469 94.667969 307.257812 94.25 C 305.910156 93.835938 304.539062 93.535156 303.140625 93.347656 C 301.746094 93.160156 300.339844 93.089844 298.933594 93.136719 C 297.523438 93.183594 296.125 93.34375 294.746094 93.625 C 293.363281 93.902344 292.011719 94.296875 290.695312 94.800781 C 289.378906 95.300781 288.113281 95.910156 286.898438 96.625 L 252.257812 117.03125 C 250.578125 118.015625 249.054688 119.195312 247.6875 120.578125 C 246.320312 121.960938 245.152344 123.496094 244.1875 125.183594 C 243.222656 126.871094 242.492188 128.652344 241.992188 130.53125 C 241.496094 132.410156 241.246094 134.320312 241.25 136.265625 L 241.25 174.957031 L 210.277344 202.199219 C 209.632812 201.527344 208.957031 200.882812 208.25 200.273438 C 207.542969 199.664062 206.808594 199.089844 206.046875 198.554688 C 205.28125 198.015625 204.496094 197.515625 203.683594 197.054688 C 202.871094 196.59375 202.039062 196.171875 201.1875 195.792969 C 200.335938 195.410156 199.464844 195.070312 198.582031 194.777344 C 197.695312 194.480469 196.796875 194.226562 195.886719 194.019531 C 194.976562 193.808594 194.058594 193.644531 193.132812 193.523438 C 192.207031 193.402344 191.277344 193.328125 190.34375 193.300781 C 189.410156 193.269531 188.480469 193.285156 187.546875 193.347656 C 186.617188 193.40625 185.6875 193.511719 184.769531 193.664062 C 183.847656 193.816406 182.933594 194.011719 182.03125 194.25 C 181.128906 194.488281 180.242188 194.773438 179.367188 195.097656 C 178.492188 195.421875 177.632812 195.789062 176.792969 196.199219 C 175.957031 196.609375 175.136719 197.058594 174.34375 197.546875 C 173.546875 198.035156 172.777344 198.558594 172.03125 199.121094 C 171.289062 199.6875 170.574219 200.285156 169.886719 200.917969 L 129.078125 238.703125 C 127.847656 239.835938 126.675781 241.027344 125.566406 242.277344 C 124.460938 243.53125 123.417969 244.835938 122.441406 246.195312 C 121.464844 247.554688 120.5625 248.960938 119.734375 250.414062 C 118.902344 251.863281 118.148438 253.355469 117.472656 254.882812 C 116.792969 256.414062 116.195312 257.972656 115.679688 259.5625 C 115.164062 261.152344 114.726562 262.765625 114.375 264.402344 C 114.023438 266.035156 113.757812 267.683594 113.578125 269.347656 C 113.394531 271.007812 113.296875 272.675781 113.289062 274.347656 C 113.277344 276.019531 113.351562 277.691406 113.511719 279.355469 C 113.671875 281.019531 113.917969 282.671875 114.25 284.308594 C 114.582031 285.949219 114.996094 287.566406 115.492188 289.164062 C 115.988281 290.761719 116.566406 292.328125 117.222656 293.867188 C 117.882812 295.402344 118.617188 296.902344 119.429688 298.367188 C 120.242188 299.828125 121.125 301.246094 122.082031 302.617188 C 123.042969 303.988281 124.066406 305.304688 125.160156 306.574219 C 126.253906 307.839844 127.410156 309.046875 128.625 310.195312 C 129.757812 311.257812 130.9375 312.265625 132.164062 313.214844 C 133.390625 314.167969 134.660156 315.058594 135.972656 315.890625 C 137.285156 316.71875 138.632812 317.488281 140.019531 318.1875 C 141.40625 318.890625 142.820312 319.527344 144.265625 320.09375 C 145.710938 320.660156 147.183594 321.15625 148.675781 321.585938 C 150.167969 322.011719 151.679688 322.367188 153.207031 322.652344 C 154.734375 322.933594 156.273438 323.144531 157.820312 323.28125 C 159.367188 323.421875 160.917969 323.484375 162.46875 323.472656 C 164.023438 323.460938 165.574219 323.378906 167.117188 323.21875 C 168.664062 323.0625 170.199219 322.832031 171.722656 322.527344 C 173.246094 322.222656 174.75 321.847656 176.238281 321.398438 C 177.726562 320.953125 179.1875 320.433594 180.625 319.847656 C 182.066406 319.261719 183.472656 318.609375 184.847656 317.886719 C 186.222656 317.167969 187.5625 316.382812 188.863281 315.535156 C 190.164062 314.6875 191.421875 313.777344 192.636719 312.808594 C 193.851562 311.84375 195.015625 310.820312 196.132812 309.738281 L 224.609375 282.496094 C 225.578125 281.574219 226.507812 280.613281 227.398438 279.617188 C 228.289062 278.621094 229.140625 277.589844 229.949219 276.527344 C 230.761719 275.464844 231.527344 274.371094 232.253906 273.246094 C 232.980469 272.125 233.660156 270.972656 234.292969 269.796875 C 234.929688 268.621094 235.515625 267.421875 236.054688 266.199219 C 236.597656 264.976562 237.089844 263.734375 237.53125 262.472656 C 237.976562 261.214844 238.367188 259.9375 238.710938 258.644531 C 239.054688 257.355469 239.347656 256.050781 239.589844 254.734375 C 239.828125 253.421875 240.019531 252.097656 240.15625 250.769531 C 240.292969 249.441406 240.378906 248.109375 240.410156 246.773438 C 240.441406 245.4375 240.421875 244.101562 240.351562 242.765625 C 240.277344 241.429688 240.15625 240.101562 239.976562 238.777344 C 239.800781 237.453125 239.574219 236.136719 239.292969 234.828125 C 239.015625 233.523438 238.683594 232.226562 238.304688 230.945312 C 237.921875 229.667969 237.492188 228.402344 237.011719 227.15625 C 236.53125 225.90625 236.003906 224.679688 235.425781 223.472656 L 264.585938 198.195312 L 295.710938 198.195312 C 297.429688 198.195312 299.136719 198.074219 300.835938 197.824219 C 302.535156 197.574219 304.207031 197.199219 305.851562 196.703125 C 307.496094 196.207031 309.09375 195.59375 310.648438 194.863281 C 312.199219 194.128906 313.691406 193.289062 315.121094 192.335938 C 316.550781 191.386719 317.902344 190.335938 319.175781 189.183594 C 320.449219 188.03125 321.632812 186.796875 322.726562 185.46875 C 323.816406 184.144531 324.804688 182.746094 325.691406 181.277344 C 326.574219 179.808594 327.347656 178.28125 328.007812 176.695312 L 341.054688 145.445312 C 341.507812 144.359375 341.878906 143.246094 342.167969 142.105469 C 342.457031 140.964844 342.664062 139.808594 342.78125 138.636719 C 342.902344 137.464844 342.9375 136.292969 342.886719 135.113281 C 342.832031 133.9375 342.695312 132.773438 342.472656 131.617188 C 342.25 130.460938 341.945312 129.328125 341.558594 128.214844 C 341.167969 127.105469 340.703125 126.027344 340.15625 124.984375 C 339.609375 123.941406 338.992188 122.941406 338.300781 121.988281 C 337.605469 121.039062 336.847656 120.140625 336.027344 119.296875 Z M 204.1875 260.808594 L 174.539062 291.035156 C 174.054688 291.527344 173.546875 291.996094 173.019531 292.4375 C 172.488281 292.882812 171.9375 293.296875 171.363281 293.683594 C 170.792969 294.070312 170.203125 294.425781 169.59375 294.753906 C 168.988281 295.082031 168.363281 295.378906 167.726562 295.644531 C 167.089844 295.910156 166.441406 296.144531 165.777344 296.34375 C 165.117188 296.542969 164.449219 296.710938 163.769531 296.84375 C 163.09375 296.976562 162.410156 297.074219 161.722656 297.140625 C 161.035156 297.207031 160.34375 297.234375 159.652344 297.230469 C 158.964844 297.226562 158.273438 297.1875 157.585938 297.113281 C 156.902344 297.039062 156.21875 296.933594 155.542969 296.792969 C 154.867188 296.648438 154.199219 296.472656 153.542969 296.265625 C 152.882812 296.058594 152.238281 295.816406 151.601562 295.542969 C 150.96875 295.269531 150.351562 294.964844 149.746094 294.628906 C 149.140625 294.292969 148.558594 293.929688 147.988281 293.535156 C 147.421875 293.140625 146.878906 292.71875 146.351562 292.269531 C 145.828125 291.820312 145.328125 291.347656 144.851562 290.847656 C 144.402344 290.375 143.976562 289.878906 143.574219 289.367188 C 143.171875 288.851562 142.792969 288.320312 142.441406 287.769531 C 142.089844 287.21875 141.765625 286.65625 141.46875 286.074219 C 141.171875 285.496094 140.898438 284.902344 140.660156 284.296875 C 140.417969 283.6875 140.203125 283.074219 140.019531 282.445312 C 139.839844 281.820312 139.683594 281.1875 139.5625 280.546875 C 139.4375 279.90625 139.347656 279.261719 139.285156 278.609375 C 139.222656 277.960938 139.191406 277.3125 139.191406 276.660156 C 139.191406 276.007812 139.222656 275.355469 139.285156 274.707031 C 139.347656 274.054688 139.4375 273.410156 139.5625 272.769531 C 139.683594 272.128906 139.839844 271.496094 140.019531 270.871094 C 140.203125 270.242188 140.417969 269.628906 140.660156 269.023438 C 140.898438 268.414062 141.171875 267.820312 141.46875 267.242188 C 141.765625 266.660156 142.089844 266.097656 142.441406 265.546875 C 142.792969 264.996094 143.171875 264.464844 143.574219 263.949219 C 143.976562 263.4375 144.402344 262.941406 144.851562 262.46875 L 173.859375 231.789062 C 174.359375 231.257812 174.886719 230.753906 175.441406 230.277344 C 175.996094 229.800781 176.574219 229.355469 177.175781 228.9375 C 177.777344 228.523438 178.398438 228.136719 179.039062 227.785156 C 179.679688 227.433594 180.335938 227.117188 181.011719 226.832031 C 181.683594 226.550781 182.371094 226.300781 183.070312 226.089844 C 183.769531 225.878906 184.480469 225.703125 185.195312 225.566406 C 185.914062 225.425781 186.636719 225.324219 187.367188 225.261719 C 188.09375 225.199219 188.824219 225.171875 189.554688 225.183594 C 190.285156 225.199219 191.015625 225.25 191.742188 225.335938 C 192.46875 225.425781 193.1875 225.550781 193.898438 225.710938 C 194.613281 225.875 195.3125 226.074219 196.007812 226.308594 C 196.699219 226.546875 197.375 226.816406 198.039062 227.121094 C 198.703125 227.429688 199.351562 227.769531 199.980469 228.140625 C 200.605469 228.515625 201.214844 228.917969 201.800781 229.355469 C 202.386719 229.792969 202.949219 230.257812 203.488281 230.753906 C 204.027344 231.246094 204.535156 231.769531 205.019531 232.316406 C 205.449219 232.808594 205.851562 233.320312 206.230469 233.851562 C 206.609375 234.382812 206.964844 234.929688 207.292969 235.496094 C 207.621094 236.058594 207.925781 236.636719 208.199219 237.230469 C 208.472656 237.820312 208.722656 238.425781 208.941406 239.039062 C 209.160156 239.652344 209.347656 240.277344 209.511719 240.910156 C 209.671875 241.542969 209.800781 242.179688 209.902344 242.824219 C 210.003906 243.46875 210.078125 244.117188 210.117188 244.769531 C 210.160156 245.417969 210.171875 246.070312 210.152344 246.722656 C 210.132812 247.375 210.085938 248.027344 210.003906 248.671875 C 209.925781 249.320312 209.816406 249.964844 209.675781 250.601562 C 209.539062 251.238281 209.371094 251.867188 209.171875 252.492188 C 208.972656 253.113281 208.746094 253.722656 208.492188 254.324219 C 208.238281 254.925781 207.957031 255.511719 207.648438 256.089844 C 207.339844 256.664062 207.003906 257.222656 206.644531 257.765625 C 206.28125 258.308594 205.894531 258.835938 205.484375 259.34375 C 205.078125 259.851562 204.644531 260.339844 204.1875 260.808594 Z M 299.605469 168.15625 L 269.351562 168.15625 L 269.351562 137.058594 L 298.507812 122.511719 L 314.054688 137.058594 Z M 299.605469 168.15625 " fill-opacity="1" fill-rule="nonzero"/><path fill="#ffffff" d="M 145.945312 165.433594 L 145.945312 122.511719 L 185.695312 122.511719 C 186.660156 122.511719 187.617188 122.414062 188.566406 122.226562 C 189.511719 122.039062 190.433594 121.761719 191.324219 121.390625 C 192.21875 121.023438 193.066406 120.570312 193.867188 120.03125 C 194.671875 119.496094 195.414062 118.886719 196.097656 118.203125 C 196.78125 117.523438 197.390625 116.78125 197.925781 115.976562 C 198.464844 115.175781 198.917969 114.328125 199.285156 113.4375 C 199.65625 112.542969 199.933594 111.625 200.125 110.679688 C 200.3125 109.730469 200.40625 108.777344 200.40625 107.8125 C 200.40625 106.847656 200.3125 105.890625 200.125 104.945312 C 199.933594 103.996094 199.65625 103.078125 199.285156 102.1875 C 198.917969 101.292969 198.464844 100.449219 197.925781 99.644531 C 197.390625 98.84375 196.78125 98.101562 196.097656 97.417969 C 195.414062 96.734375 194.671875 96.125 193.867188 95.589844 C 193.066406 95.054688 192.21875 94.601562 191.324219 94.230469 C 190.433594 93.863281 189.511719 93.582031 188.566406 93.394531 C 187.617188 93.207031 186.660156 93.113281 185.695312 93.113281 L 149.390625 93.113281 C 148.214844 93.113281 147.039062 93.171875 145.871094 93.285156 C 144.699219 93.398438 143.539062 93.574219 142.386719 93.800781 C 141.234375 94.03125 140.09375 94.316406 138.96875 94.65625 C 137.84375 94.996094 136.738281 95.394531 135.652344 95.84375 C 134.566406 96.292969 133.507812 96.792969 132.46875 97.347656 C 131.433594 97.898438 130.425781 98.503906 129.449219 99.15625 C 128.472656 99.808594 127.527344 100.507812 126.621094 101.253906 C 125.710938 101.996094 124.839844 102.785156 124.011719 103.617188 C 123.179688 104.445312 122.390625 105.316406 121.644531 106.222656 C 120.898438 107.128906 120.199219 108.074219 119.546875 109.050781 C 118.894531 110.027344 118.289062 111.03125 117.734375 112.066406 C 117.183594 113.101562 116.679688 114.164062 116.230469 115.25 C 115.78125 116.332031 115.386719 117.4375 115.042969 118.5625 C 114.703125 119.6875 114.417969 120.824219 114.1875 121.976562 C 113.957031 123.128906 113.785156 124.289062 113.671875 125.457031 C 113.554688 126.625 113.5 127.796875 113.5 128.972656 L 113.5 165.433594 C 113.496094 165.96875 113.523438 166.503906 113.574219 167.035156 C 113.625 167.566406 113.703125 168.09375 113.804688 168.617188 C 113.910156 169.140625 114.035156 169.660156 114.191406 170.171875 C 114.34375 170.683594 114.523438 171.183594 114.726562 171.679688 C 114.933594 172.171875 115.160156 172.65625 115.410156 173.128906 C 115.660156 173.597656 115.9375 174.054688 116.230469 174.5 C 116.527344 174.945312 116.847656 175.375 117.183594 175.789062 C 117.523438 176.203125 117.882812 176.597656 118.257812 176.976562 C 118.636719 177.351562 119.03125 177.710938 119.445312 178.050781 C 119.859375 178.390625 120.285156 178.707031 120.730469 179.007812 C 121.175781 179.304688 121.632812 179.578125 122.105469 179.828125 C 122.574219 180.082031 123.058594 180.3125 123.550781 180.515625 C 124.046875 180.71875 124.546875 180.898438 125.058594 181.054688 C 125.570312 181.210938 126.089844 181.339844 126.613281 181.445312 C 127.136719 181.550781 127.667969 181.628906 128.199219 181.679688 C 128.730469 181.730469 129.265625 181.757812 129.796875 181.757812 C 130.328125 181.753906 130.859375 181.722656 131.386719 181.667969 C 131.917969 181.609375 132.441406 181.527344 132.960938 181.417969 C 133.480469 181.3125 133.996094 181.179688 134.503906 181.019531 C 135.011719 180.863281 135.507812 180.679688 136 180.472656 C 136.488281 180.265625 136.964844 180.035156 137.433594 179.78125 C 137.898438 179.527344 138.351562 179.25 138.792969 178.953125 C 139.234375 178.65625 139.65625 178.335938 140.066406 177.996094 C 140.476562 177.660156 140.867188 177.300781 141.238281 176.921875 C 141.613281 176.542969 141.96875 176.148438 142.304688 175.738281 C 142.636719 175.324219 142.953125 174.898438 143.246094 174.453125 C 143.539062 174.011719 143.808594 173.554688 144.058594 173.085938 C 144.304688 172.617188 144.53125 172.136719 144.730469 171.644531 C 144.933594 171.152344 145.109375 170.652344 145.261719 170.144531 C 145.414062 169.636719 145.542969 169.121094 145.644531 168.597656 C 145.746094 168.078125 145.824219 167.554688 145.875 167.023438 C 145.921875 166.496094 145.949219 165.964844 145.945312 165.433594 Z M 145.945312 165.433594 " fill-opacity="1" fill-rule="nonzero"/><path fill="#ffffff" d="M 308.230469 251.097656 L 308.230469 294.058594 L 268.59375 294.058594 C 267.628906 294.058594 266.671875 294.152344 265.722656 294.339844 C 264.777344 294.53125 263.855469 294.808594 262.964844 295.175781 C 262.070312 295.546875 261.222656 296 260.421875 296.535156 C 259.617188 297.070312 258.875 297.679688 258.191406 298.363281 C 257.507812 299.046875 256.898438 299.789062 256.363281 300.589844 C 255.824219 301.394531 255.371094 302.242188 255.003906 303.132812 C 254.632812 304.023438 254.355469 304.945312 254.164062 305.890625 C 253.976562 306.835938 253.882812 307.792969 253.882812 308.757812 C 253.886719 309.722656 253.980469 310.675781 254.171875 311.621094 C 254.363281 312.5625 254.644531 313.480469 255.011719 314.371094 C 255.382812 315.261719 255.839844 316.105469 256.375 316.90625 C 256.914062 317.707031 257.523438 318.445312 258.203125 319.125 C 258.886719 319.808594 259.628906 320.414062 260.433594 320.949219 C 261.234375 321.484375 262.082031 321.933594 262.972656 322.304688 C 263.863281 322.671875 264.78125 322.949219 265.730469 323.136719 C 266.675781 323.324219 267.628906 323.417969 268.59375 323.417969 L 305.128906 323.417969 C 306.300781 323.417969 307.476562 323.359375 308.644531 323.246094 C 309.8125 323.128906 310.972656 322.957031 312.125 322.730469 C 313.277344 322.5 314.417969 322.214844 315.542969 321.875 C 316.667969 321.53125 317.769531 321.136719 318.855469 320.6875 C 319.941406 320.238281 321.003906 319.738281 322.039062 319.183594 C 323.074219 318.628906 324.082031 318.027344 325.058594 317.375 C 326.035156 316.722656 326.976562 316.023438 327.886719 315.277344 C 328.792969 314.53125 329.660156 313.742188 330.492188 312.914062 C 331.324219 312.082031 332.109375 311.214844 332.855469 310.304688 C 333.601562 309.398438 334.296875 308.457031 334.949219 307.480469 C 335.601562 306.503906 336.207031 305.496094 336.757812 304.460938 C 337.3125 303.425781 337.8125 302.363281 338.261719 301.28125 C 338.710938 300.195312 339.105469 299.089844 339.445312 297.964844 C 339.785156 296.84375 340.070312 295.703125 340.296875 294.554688 C 340.527344 293.402344 340.695312 292.242188 340.8125 291.074219 C 340.925781 289.90625 340.980469 288.734375 340.980469 287.558594 L 340.980469 251.097656 C 340.980469 250.5625 340.953125 250.03125 340.902344 249.5 C 340.847656 248.96875 340.769531 248.441406 340.667969 247.917969 C 340.5625 247.394531 340.433594 246.878906 340.277344 246.367188 C 340.125 245.859375 339.945312 245.355469 339.738281 244.863281 C 339.535156 244.371094 339.308594 243.890625 339.054688 243.417969 C 338.804688 242.949219 338.53125 242.492188 338.234375 242.046875 C 337.9375 241.605469 337.617188 241.175781 337.28125 240.765625 C 336.941406 240.351562 336.582031 239.957031 336.207031 239.582031 C 335.828125 239.203125 335.433594 238.84375 335.019531 238.507812 C 334.609375 238.167969 334.179688 237.851562 333.734375 237.554688 C 333.292969 237.257812 332.835938 236.984375 332.363281 236.734375 C 331.894531 236.480469 331.410156 236.253906 330.917969 236.050781 C 330.425781 235.847656 329.921875 235.667969 329.410156 235.511719 C 328.902344 235.355469 328.382812 235.226562 327.859375 235.125 C 327.335938 235.019531 326.808594 234.941406 326.277344 234.890625 C 325.746094 234.835938 325.214844 234.808594 324.679688 234.808594 C 324.144531 234.804688 323.605469 234.828125 323.070312 234.875 C 322.539062 234.921875 322.007812 234.996094 321.480469 235.097656 C 320.949219 235.199219 320.429688 235.324219 319.914062 235.476562 C 319.398438 235.628906 318.894531 235.804688 318.394531 236.007812 C 317.898438 236.207031 317.410156 236.433594 316.9375 236.683594 C 316.460938 236.933594 316 237.207031 315.550781 237.503906 C 315.101562 237.796875 314.671875 238.113281 314.253906 238.453125 C 313.835938 238.789062 313.4375 239.148438 313.054688 239.527344 C 312.675781 239.902344 312.3125 240.300781 311.96875 240.714844 C 311.628906 241.125 311.308594 241.554688 311.007812 242 C 310.707031 242.445312 310.429688 242.90625 310.175781 243.378906 C 309.921875 243.847656 309.691406 244.332031 309.484375 244.828125 C 309.277344 245.324219 309.09375 245.828125 308.9375 246.339844 C 308.78125 246.855469 308.652344 247.375 308.546875 247.898438 C 308.441406 248.425781 308.359375 248.957031 308.308594 249.492188 C 308.253906 250.023438 308.230469 250.558594 308.230469 251.097656 Z M 308.230469 251.097656 " fill-opacity="1" fill-rule="nonzero"/><g fill="#bd1920" fill-opacity="1"><g transform="translate(453.296296, 160.60881)"><g><path d="M 84.875 -112.5625 L 84.875 -91.15625 L 36.703125 -91.15625 L 36.703125 -65.609375 L 78.453125 -65.609375 L 78.453125 -44.203125 L 36.703125 -44.203125 L 36.703125 0 L 14.53125 0 L 14.53125 -112.5625 Z M 84.875 -112.5625 "/></g></g></g><g fill="#bd1920" fill-opacity="1"><g transform="translate(545.053834, 160.60881)"><g><path d="M 91.296875 -112.5625 L 91.296875 -91.15625 L 36.703125 -91.15625 L 36.703125 -67.140625 L 85.03125 -67.140625 L 85.03125 -45.734375 L 36.703125 -45.734375 L 36.703125 -21.40625 L 93.4375 -21.40625 L 93.4375 0 L 14.53125 0 L 14.53125 -112.5625 Z M 91.296875 -112.5625 "/></g></g></g><g fill="#bd1920" fill-opacity="1"><g transform="translate(646.90468, 160.60881)"><g><path d="M 14.53125 -112.5625 L 48.171875 -112.5625 C 62.546875 -112.5625 74.375 -109.78125 83.65625 -104.21875 C 92.9375 -98.664062 99.691406 -91.476562 103.921875 -82.65625 C 108.148438 -73.84375 110.265625 -64.390625 110.265625 -54.296875 C 110.265625 -43.484375 107.710938 -33.945312 102.609375 -25.6875 C 97.515625 -17.4375 90.660156 -11.09375 82.046875 -6.65625 C 73.429688 -2.21875 63.976562 0 53.6875 0 L 14.53125 0 Z M 49.859375 -21.40625 C 61.378906 -21.40625 70.503906 -24.363281 77.234375 -30.28125 C 83.960938 -36.195312 87.328125 -44.710938 87.328125 -55.828125 C 87.328125 -64.796875 85.460938 -71.929688 81.734375 -77.234375 C 78.015625 -82.535156 73.679688 -86.203125 68.734375 -88.234375 C 63.796875 -90.273438 59.132812 -91.296875 54.75 -91.296875 L 36.703125 -91.296875 L 36.703125 -21.40625 Z M 49.859375 -21.40625 "/></g></g></g><g fill="#bd1920" fill-opacity="1"><g transform="translate(764.813068, 160.60881)"><g><path d="M 91.296875 -112.5625 L 91.296875 -91.15625 L 36.703125 -91.15625 L 36.703125 -67.140625 L 85.03125 -67.140625 L 85.03125 -45.734375 L 36.703125 -45.734375 L 36.703125 -21.40625 L 93.4375 -21.40625 L 93.4375 0 L 14.53125 0 L 14.53125 -112.5625 Z M 91.296875 -112.5625 "/></g></g></g><g fill="#bd1920" fill-opacity="1"><g transform="translate(866.663914, 160.60881)"><g><path d="M 75.25 0 L 51.546875 -35.78125 L 36.703125 -35.78125 L 36.703125 0 L 14.53125 0 L 14.53125 -112.5625 L 48.640625 -112.5625 C 62.609375 -112.5625 73.441406 -109.171875 81.140625 -102.390625 C 88.835938 -95.609375 92.6875 -86.359375 92.6875 -74.640625 C 92.6875 -67.703125 91.234375 -61.195312 88.328125 -55.125 C 85.421875 -49.0625 80.957031 -44.296875 74.9375 -40.828125 L 101.09375 0 Z M 36.703125 -57.203125 L 52.453125 -57.203125 C 58.472656 -57.203125 62.859375 -58.957031 65.609375 -62.46875 C 68.359375 -65.988281 69.734375 -69.789062 69.734375 -73.875 C 69.734375 -77.945312 68.5625 -81.84375 66.21875 -85.5625 C 63.875 -89.289062 59.335938 -91.15625 52.609375 -91.15625 L 36.703125 -91.15625 Z M 36.703125 -57.203125 "/></g></g></g><g fill="#bd1920" fill-opacity="1"><g transform="translate(971.573397, 160.60881)"><g><path d="M 70.203125 -22.015625 L 32.875 -22.015625 L 23.703125 0 L 1.828125 0 L 52.609375 -117 L 53.828125 -117 L 104.609375 0 L 78.921875 0 Z M 62.859375 -40.6875 L 52 -68.0625 L 40.6875 -40.6875 Z M 62.859375 -40.6875 "/></g></g></g><g fill="#bd1920" fill-opacity="1"><g transform="translate(1078.012078, 160.60881)"><g><path d="M 36.703125 -112.5625 L 36.703125 -21.40625 L 89.625 -21.40625 L 89.625 0 L 14.53125 0 L 14.53125 -112.5625 Z M 36.703125 -112.5625 "/></g></g></g><g fill="#bf1a21" fill-opacity="1"><g transform="translate(453.296296, 318.277614)"><g><path d="M 76.6875 -101.703125 L 76.6875 -82.359375 L 33.171875 -82.359375 L 33.171875 -59.28125 L 70.890625 -59.28125 L 70.890625 -39.9375 L 33.171875 -39.9375 L 33.171875 0 L 13.125 0 L 13.125 -101.703125 Z M 76.6875 -101.703125 "/></g></g></g><g fill="#bf1a21" fill-opacity="1"><g transform="translate(536.189651, 318.277614)"><g><path d="M 33.171875 -101.703125 L 33.171875 0 L 13.125 0 L 13.125 -101.703125 Z M 33.171875 -101.703125 "/></g></g></g><g fill="#bf1a21" fill-opacity="1"><g transform="translate(582.471734, 318.277614)"><g><path d="M 70.890625 0 L 48.09375 -35.09375 L 28.328125 0 L 3.453125 0 L 36.765625 -52.515625 L 4.84375 -101.703125 L 30.40625 -101.703125 L 52.375 -67.984375 L 71.4375 -101.703125 L 95.765625 -101.703125 L 63.421875 -51.125 L 96.734375 0 Z M 70.890625 0 "/></g></g></g></svg>