<svg xmlns="http://www.w3.org/2000/svg" xmlns:xlink="http://www.w3.org/1999/xlink" width="1600" viewBox="0 0 1200 412.499988" height="550" preserveAspectRatio="xMidYMid meet"><defs><g></g></defs><path fill="#ffffff" d="M 70.210938 27.1875 L 384.644531 27.1875 C 385.679688 27.1875 386.714844 27.238281 387.746094 27.339844 C 388.777344 27.441406 389.800781 27.59375 390.816406 27.796875 C 391.835938 28 392.839844 28.25 393.832031 28.550781 C 394.824219 28.851562 395.796875 29.203125 396.757812 29.597656 C 397.714844 29.996094 398.648438 30.4375 399.5625 30.925781 C 400.476562 31.414062 401.367188 31.949219 402.226562 32.523438 C 403.089844 33.097656 403.921875 33.714844 404.722656 34.375 C 405.523438 35.03125 406.292969 35.726562 407.023438 36.460938 C 407.757812 37.191406 408.453125 37.960938 409.109375 38.761719 C 409.769531 39.5625 410.382812 40.394531 410.960938 41.253906 C 411.535156 42.117188 412.070312 43.003906 412.558594 43.921875 C 413.046875 44.835938 413.488281 45.769531 413.886719 46.726562 C 414.28125 47.683594 414.632812 48.660156 414.933594 49.652344 C 415.234375 50.644531 415.484375 51.648438 415.6875 52.664062 C 415.890625 53.683594 416.039062 54.707031 416.140625 55.738281 C 416.242188 56.769531 416.292969 57.804688 416.292969 58.839844 L 416.292969 373.273438 C 416.292969 374.308594 416.242188 375.34375 416.140625 376.375 C 416.039062 377.40625 415.890625 378.429688 415.6875 379.445312 C 415.484375 380.464844 415.234375 381.46875 414.933594 382.460938 C 414.632812 383.453125 414.28125 384.425781 413.886719 385.386719 C 413.488281 386.34375 413.046875 387.277344 412.558594 388.191406 C 412.070312 389.105469 411.535156 389.996094 410.960938 390.855469 C 410.382812 391.71875 409.769531 392.550781 409.109375 393.351562 C 408.453125 394.152344 407.757812 394.921875 407.023438 395.652344 C 406.292969 396.386719 405.523438 397.082031 404.722656 397.738281 C 403.921875 398.398438 403.089844 399.011719 402.226562 399.589844 C 401.367188 400.164062 400.476562 400.699219 399.5625 401.1875 C 398.648438 401.675781 397.714844 402.117188 396.757812 402.515625 C 395.796875 402.910156 394.824219 403.261719 393.832031 403.5625 C 392.839844 403.863281 391.835938 404.113281 390.816406 404.316406 C 389.800781 404.519531 388.777344 404.667969 387.746094 404.769531 C 386.714844 404.871094 385.679688 404.921875 384.644531 404.921875 L 70.210938 404.921875 C 69.175781 404.921875 68.140625 404.871094 67.109375 404.769531 C 66.078125 404.667969 65.054688 404.519531 64.035156 404.316406 C 63.019531 404.113281 62.015625 403.863281 61.023438 403.5625 C 60.03125 403.261719 59.058594 402.910156 58.097656 402.515625 C 57.140625 402.117188 56.207031 401.675781 55.292969 401.1875 C 54.375 400.699219 53.488281 400.164062 52.625 399.589844 C 51.765625 399.011719 50.933594 398.398438 50.132812 397.738281 C 49.332031 397.082031 48.5625 396.386719 47.832031 395.652344 C 47.097656 394.921875 46.402344 394.152344 45.746094 393.351562 C 45.085938 392.550781 44.46875 391.71875 43.894531 390.855469 C 43.320312 389.996094 42.785156 389.105469 42.296875 388.191406 C 41.808594 387.277344 41.367188 386.34375 40.96875 385.382812 C 40.574219 384.425781 40.222656 383.453125 39.921875 382.460938 C 39.621094 381.46875 39.371094 380.464844 39.167969 379.445312 C 38.964844 378.429688 38.8125 377.40625 38.710938 376.375 C 38.609375 375.34375 38.558594 374.308594 38.558594 373.273438 L 38.558594 58.839844 C 38.558594 57.804688 38.609375 56.769531 38.710938 55.738281 C 38.8125 54.707031 38.964844 53.683594 39.167969 52.664062 C 39.371094 51.648438 39.621094 50.644531 39.921875 49.652344 C 40.222656 48.660156 40.574219 47.683594 40.96875 46.726562 C 41.367188 45.769531 41.808594 44.835938 42.296875 43.921875 C 42.785156 43.003906 43.320312 42.117188 43.894531 41.253906 C 44.46875 40.394531 45.085938 39.5625 45.746094 38.761719 C 46.402344 37.960938 47.097656 37.191406 47.832031 36.460938 C 48.5625 35.726562 49.332031 35.03125 50.132812 34.375 C 50.933594 33.714844 51.765625 33.097656 52.625 32.523438 C 53.488281 31.949219 54.375 31.414062 55.292969 30.925781 C 56.207031 30.4375 57.140625 29.996094 58.097656 29.597656 C 59.058594 29.203125 60.03125 28.851562 61.023438 28.550781 C 62.015625 28.25 63.019531 28 64.035156 27.796875 C 65.054688 27.59375 66.078125 27.441406 67.109375 27.339844 C 68.140625 27.238281 69.175781 27.1875 70.210938 27.1875 Z M 70.210938 27.1875 " fill-opacity="1" fill-rule="nonzero"></path><path fill="#bf1a21" d="M 337.488281 127.058594 L 319.414062 108.527344 C 318.429688 107.519531 317.367188 106.597656 316.230469 105.765625 C 315.09375 104.933594 313.894531 104.199219 312.636719 103.566406 C 311.375 102.933594 310.070312 102.40625 308.726562 101.992188 C 307.378906 101.574219 306.003906 101.273438 304.609375 101.085938 C 303.210938 100.898438 301.808594 100.828125 300.398438 100.875 C 298.988281 100.921875 297.59375 101.085938 296.210938 101.363281 C 294.828125 101.644531 293.480469 102.035156 292.164062 102.539062 C 290.847656 103.042969 289.582031 103.65625 288.367188 104.371094 L 253.726562 124.789062 C 252.050781 125.773438 250.527344 126.957031 249.160156 128.339844 C 247.792969 129.722656 246.625 131.257812 245.660156 132.945312 C 244.695312 134.636719 243.964844 136.417969 243.464844 138.300781 C 242.96875 140.179688 242.71875 142.09375 242.722656 144.039062 L 242.722656 182.761719 L 211.753906 210.023438 C 211.109375 209.347656 210.433594 208.707031 209.726562 208.097656 C 209.019531 207.488281 208.285156 206.914062 207.519531 206.375 C 206.757812 205.835938 205.972656 205.335938 205.160156 204.875 C 204.347656 204.414062 203.515625 203.992188 202.664062 203.609375 C 201.8125 203.230469 200.941406 202.890625 200.058594 202.59375 C 199.171875 202.296875 198.273438 202.042969 197.363281 201.835938 C 196.457031 201.625 195.539062 201.460938 194.613281 201.339844 C 193.6875 201.222656 192.757812 201.148438 191.824219 201.117188 C 190.890625 201.085938 189.957031 201.101562 189.027344 201.164062 C 188.09375 201.222656 187.167969 201.332031 186.246094 201.480469 C 185.324219 201.632812 184.414062 201.828125 183.511719 202.066406 C 182.609375 202.308594 181.71875 202.589844 180.84375 202.914062 C 179.96875 203.242188 179.113281 203.609375 178.273438 204.019531 C 177.433594 204.429688 176.617188 204.878906 175.820312 205.367188 C 175.027344 205.855469 174.257812 206.378906 173.511719 206.945312 C 172.769531 207.507812 172.054688 208.105469 171.367188 208.738281 L 130.5625 246.554688 C 129.332031 247.6875 128.160156 248.878906 127.054688 250.132812 C 125.945312 251.386719 124.902344 252.695312 123.925781 254.054688 C 122.953125 255.414062 122.050781 256.820312 121.21875 258.273438 C 120.386719 259.726562 119.632812 261.21875 118.957031 262.75 C 118.28125 264.277344 117.683594 265.839844 117.164062 267.429688 C 116.648438 269.023438 116.214844 270.636719 115.863281 272.273438 C 115.511719 273.910156 115.246094 275.558594 115.0625 277.222656 C 114.878906 278.886719 114.785156 280.554688 114.773438 282.226562 C 114.761719 283.902344 114.839844 285.570312 115 287.238281 C 115.160156 288.902344 115.40625 290.554688 115.734375 292.195312 C 116.066406 293.835938 116.480469 295.457031 116.976562 297.054688 C 117.472656 298.652344 118.050781 300.222656 118.710938 301.761719 C 119.367188 303.300781 120.101562 304.800781 120.914062 306.261719 C 121.726562 307.726562 122.609375 309.144531 123.570312 310.515625 C 124.527344 311.890625 125.550781 313.210938 126.644531 314.476562 C 127.738281 315.742188 128.894531 316.953125 130.109375 318.101562 C 131.242188 319.164062 132.421875 320.171875 133.648438 321.125 C 134.875 322.078125 136.144531 322.96875 137.457031 323.800781 C 138.769531 324.632812 140.117188 325.398438 141.503906 326.101562 C 142.886719 326.804688 144.304688 327.441406 145.75 328.007812 C 147.195312 328.574219 148.664062 329.074219 150.160156 329.5 C 151.652344 329.929688 153.160156 330.285156 154.6875 330.566406 C 156.214844 330.851562 157.753906 331.0625 159.300781 331.199219 C 160.847656 331.335938 162.398438 331.402344 163.953125 331.390625 C 165.503906 331.378906 167.054688 331.296875 168.597656 331.136719 C 170.144531 330.980469 171.679688 330.746094 173.203125 330.445312 C 174.726562 330.140625 176.230469 329.761719 177.71875 329.316406 C 179.203125 328.867188 180.667969 328.351562 182.105469 327.761719 C 183.542969 327.175781 184.949219 326.523438 186.328125 325.800781 C 187.703125 325.078125 189.039062 324.292969 190.339844 323.445312 C 191.640625 322.597656 192.898438 321.6875 194.113281 320.71875 C 195.328125 319.75 196.492188 318.726562 197.609375 317.644531 L 226.085938 290.382812 C 227.050781 289.457031 227.980469 288.496094 228.871094 287.5 C 229.761719 286.503906 230.613281 285.472656 231.425781 284.40625 C 232.234375 283.34375 233.003906 282.25 233.726562 281.125 C 234.453125 280 235.132812 278.851562 235.765625 277.671875 C 236.402344 276.496094 236.988281 275.296875 237.53125 274.074219 C 238.070312 272.847656 238.5625 271.605469 239.003906 270.34375 C 239.449219 269.082031 239.839844 267.804688 240.183594 266.511719 C 240.527344 265.21875 240.820312 263.914062 241.0625 262.601562 C 241.300781 261.285156 241.492188 259.960938 241.628906 258.632812 C 241.765625 257.300781 241.851562 255.96875 241.882812 254.628906 C 241.914062 253.292969 241.894531 251.957031 241.824219 250.621094 C 241.75 249.285156 241.628906 247.953125 241.449219 246.628906 C 241.273438 245.304688 241.046875 243.984375 240.765625 242.679688 C 240.488281 241.371094 240.15625 240.074219 239.777344 238.792969 C 239.394531 237.511719 238.964844 236.246094 238.484375 234.996094 C 238.003906 233.75 237.476562 232.523438 236.898438 231.316406 L 266.054688 206.015625 L 297.175781 206.015625 C 298.894531 206.019531 300.601562 205.894531 302.300781 205.644531 C 304 205.394531 305.671875 205.019531 307.316406 204.523438 C 308.960938 204.027344 310.558594 203.414062 312.113281 202.679688 C 313.664062 201.949219 315.15625 201.105469 316.585938 200.152344 C 318.015625 199.199219 319.367188 198.148438 320.640625 196.996094 C 321.914062 195.847656 323.097656 194.609375 324.1875 193.28125 C 325.28125 191.957031 326.269531 190.558594 327.152344 189.085938 C 328.039062 187.613281 328.8125 186.085938 329.472656 184.5 L 342.515625 153.226562 C 342.96875 152.140625 343.339844 151.023438 343.628906 149.882812 C 343.917969 148.738281 344.125 147.582031 344.246094 146.410156 C 344.363281 145.238281 344.398438 144.066406 344.347656 142.886719 C 344.296875 141.710938 344.160156 140.542969 343.9375 139.386719 C 343.714844 138.230469 343.410156 137.09375 343.019531 135.984375 C 342.632812 134.871094 342.164062 133.792969 341.617188 132.75 C 341.074219 131.703125 340.453125 130.707031 339.761719 129.753906 C 339.070312 128.800781 338.3125 127.902344 337.488281 127.058594 Z M 205.664062 268.675781 L 176.019531 298.929688 C 175.535156 299.421875 175.027344 299.890625 174.496094 300.332031 C 173.96875 300.773438 173.417969 301.191406 172.84375 301.578125 C 172.273438 301.964844 171.683594 302.320312 171.074219 302.648438 C 170.46875 302.976562 169.84375 303.273438 169.207031 303.539062 C 168.570312 303.804688 167.917969 304.039062 167.257812 304.238281 C 166.597656 304.441406 165.929688 304.605469 165.25 304.742188 C 164.574219 304.875 163.890625 304.972656 163.203125 305.039062 C 162.515625 305.101562 161.824219 305.132812 161.136719 305.128906 C 160.445312 305.125 159.757812 305.085938 159.070312 305.011719 C 158.382812 304.9375 157.699219 304.828125 157.023438 304.6875 C 156.347656 304.546875 155.683594 304.371094 155.023438 304.160156 C 154.367188 303.953125 153.71875 303.710938 153.085938 303.4375 C 152.449219 303.164062 151.832031 302.859375 151.226562 302.523438 C 150.625 302.1875 150.039062 301.824219 149.472656 301.429688 C 148.90625 301.035156 148.359375 300.613281 147.835938 300.164062 C 147.3125 299.714844 146.808594 299.238281 146.332031 298.738281 C 145.882812 298.265625 145.457031 297.769531 145.054688 297.257812 C 144.652344 296.742188 144.277344 296.210938 143.925781 295.660156 C 143.574219 295.109375 143.25 294.542969 142.953125 293.964844 C 142.652344 293.382812 142.382812 292.789062 142.140625 292.183594 C 141.898438 291.574219 141.6875 290.957031 141.503906 290.332031 C 141.320312 289.707031 141.167969 289.070312 141.046875 288.429688 C 140.921875 287.789062 140.828125 287.144531 140.769531 286.492188 C 140.707031 285.84375 140.675781 285.191406 140.675781 284.539062 C 140.675781 283.886719 140.707031 283.234375 140.769531 282.585938 C 140.828125 281.933594 140.921875 281.289062 141.046875 280.648438 C 141.167969 280.007812 141.320312 279.375 141.503906 278.746094 C 141.6875 278.121094 141.898438 277.503906 142.140625 276.898438 C 142.382812 276.289062 142.652344 275.695312 142.953125 275.117188 C 143.25 274.535156 143.574219 273.96875 143.925781 273.417969 C 144.277344 272.867188 144.652344 272.335938 145.054688 271.824219 C 145.457031 271.308594 145.882812 270.8125 146.332031 270.339844 L 175.335938 239.632812 C 175.839844 239.101562 176.367188 238.597656 176.921875 238.121094 C 177.476562 237.644531 178.054688 237.199219 178.65625 236.78125 C 179.253906 236.367188 179.875 235.980469 180.515625 235.628906 C 181.160156 235.277344 181.816406 234.960938 182.488281 234.675781 C 183.164062 234.394531 183.851562 234.144531 184.550781 233.933594 C 185.25 233.71875 185.957031 233.546875 186.675781 233.40625 C 187.394531 233.269531 188.117188 233.167969 188.84375 233.105469 C 189.574219 233.039062 190.304688 233.015625 191.035156 233.027344 C 191.765625 233.039062 192.492188 233.089844 193.21875 233.179688 C 193.945312 233.265625 194.664062 233.390625 195.375 233.554688 C 196.089844 233.71875 196.792969 233.917969 197.484375 234.152344 C 198.175781 234.386719 198.851562 234.660156 199.515625 234.964844 C 200.179688 235.273438 200.828125 235.613281 201.457031 235.984375 C 202.085938 236.359375 202.691406 236.765625 203.277344 237.199219 C 203.863281 237.636719 204.425781 238.101562 204.964844 238.597656 C 205.503906 239.09375 206.011719 239.617188 206.496094 240.164062 C 206.925781 240.65625 207.328125 241.171875 207.707031 241.703125 C 208.085938 242.234375 208.441406 242.78125 208.769531 243.34375 C 209.097656 243.910156 209.398438 244.488281 209.675781 245.078125 C 209.949219 245.671875 210.195312 246.277344 210.414062 246.890625 C 210.636719 247.507812 210.824219 248.128906 210.984375 248.761719 C 211.148438 249.394531 211.277344 250.035156 211.378906 250.679688 C 211.480469 251.324219 211.554688 251.972656 211.59375 252.625 C 211.636719 253.277344 211.648438 253.929688 211.628906 254.582031 C 211.609375 255.234375 211.558594 255.886719 211.480469 256.53125 C 211.402344 257.179688 211.292969 257.824219 211.152344 258.460938 C 211.015625 259.101562 210.84375 259.730469 210.648438 260.351562 C 210.449219 260.976562 210.222656 261.585938 209.96875 262.1875 C 209.714844 262.789062 209.433594 263.378906 209.125 263.953125 C 208.816406 264.527344 208.480469 265.089844 208.117188 265.632812 C 207.757812 266.175781 207.371094 266.703125 206.960938 267.210938 C 206.550781 267.71875 206.121094 268.207031 205.664062 268.675781 Z M 301.074219 175.953125 L 270.820312 175.953125 L 270.820312 144.832031 L 299.976562 130.273438 L 315.519531 144.832031 Z M 301.074219 175.953125 " fill-opacity="1" fill-rule="nonzero"></path><path fill="#bf1a21" d="M 147.429688 173.230469 L 147.429688 130.273438 L 187.171875 130.273438 C 188.140625 130.273438 189.097656 130.179688 190.042969 129.988281 C 190.992188 129.800781 191.910156 129.523438 192.800781 129.152344 C 193.695312 128.785156 194.542969 128.332031 195.347656 127.792969 C 196.148438 127.257812 196.890625 126.648438 197.574219 125.964844 C 198.257812 125.28125 198.867188 124.539062 199.402344 123.734375 C 199.941406 122.933594 200.394531 122.085938 200.761719 121.191406 C 201.132812 120.300781 201.414062 119.378906 201.601562 118.433594 C 201.789062 117.484375 201.882812 116.527344 201.882812 115.5625 C 201.882812 114.597656 201.789062 113.640625 201.601562 112.691406 C 201.414062 111.746094 201.132812 110.824219 200.761719 109.933594 C 200.394531 109.042969 199.941406 108.195312 199.402344 107.390625 C 198.867188 106.585938 198.257812 105.84375 197.574219 105.160156 C 196.890625 104.476562 196.148438 103.867188 195.347656 103.332031 C 194.542969 102.796875 193.695312 102.34375 192.800781 101.972656 C 191.910156 101.601562 190.992188 101.324219 190.042969 101.136719 C 189.097656 100.945312 188.140625 100.851562 187.171875 100.851562 L 150.871094 100.851562 C 149.695312 100.851562 148.523438 100.910156 147.351562 101.027344 C 146.183594 101.140625 145.023438 101.3125 143.871094 101.542969 C 142.71875 101.773438 141.578125 102.058594 140.453125 102.398438 C 139.328125 102.738281 138.222656 103.132812 137.136719 103.585938 C 136.050781 104.035156 134.992188 104.535156 133.953125 105.089844 C 132.917969 105.644531 131.910156 106.246094 130.933594 106.902344 C 129.957031 107.554688 129.011719 108.253906 128.105469 109 C 127.195312 109.746094 126.328125 110.53125 125.496094 111.363281 C 124.664062 112.195312 123.875 113.066406 123.128906 113.972656 C 122.382812 114.882812 121.683594 115.824219 121.03125 116.800781 C 120.378906 117.777344 119.777344 118.785156 119.222656 119.824219 C 118.667969 120.859375 118.164062 121.921875 117.714844 123.007812 C 117.265625 124.09375 116.871094 125.195312 116.53125 126.320312 C 116.1875 127.445312 115.902344 128.585938 115.675781 129.738281 C 115.445312 130.890625 115.273438 132.050781 115.15625 133.222656 C 115.042969 134.390625 114.984375 135.5625 114.984375 136.738281 L 114.984375 173.230469 C 114.984375 173.765625 115.007812 174.296875 115.058594 174.832031 C 115.109375 175.363281 115.1875 175.890625 115.292969 176.414062 C 115.394531 176.941406 115.523438 177.457031 115.675781 177.96875 C 115.832031 178.480469 116.011719 178.984375 116.214844 179.480469 C 116.417969 179.972656 116.644531 180.457031 116.898438 180.929688 C 117.148438 181.402344 117.421875 181.859375 117.71875 182.304688 C 118.015625 182.75 118.332031 183.179688 118.671875 183.589844 C 119.007812 184.003906 119.367188 184.402344 119.746094 184.78125 C 120.121094 185.160156 120.515625 185.515625 120.929688 185.855469 C 121.34375 186.195312 121.773438 186.515625 122.214844 186.8125 C 122.660156 187.109375 123.117188 187.382812 123.589844 187.636719 C 124.058594 187.890625 124.542969 188.117188 125.035156 188.324219 C 125.53125 188.527344 126.035156 188.707031 126.542969 188.863281 C 127.054688 189.019531 127.574219 189.148438 128.097656 189.253906 C 128.621094 189.355469 129.152344 189.4375 129.683594 189.488281 C 130.214844 189.539062 130.75 189.566406 131.28125 189.566406 C 131.8125 189.5625 132.34375 189.53125 132.871094 189.472656 C 133.402344 189.417969 133.925781 189.335938 134.445312 189.226562 C 134.964844 189.117188 135.480469 188.984375 135.988281 188.828125 C 136.496094 188.667969 136.992188 188.488281 137.480469 188.28125 C 137.972656 188.074219 138.449219 187.84375 138.917969 187.589844 C 139.382812 187.335938 139.835938 187.058594 140.277344 186.761719 C 140.714844 186.460938 141.140625 186.144531 141.550781 185.804688 C 141.957031 185.464844 142.347656 185.105469 142.722656 184.726562 C 143.097656 184.347656 143.449219 183.953125 143.785156 183.539062 C 144.121094 183.128906 144.433594 182.699219 144.726562 182.257812 C 145.019531 181.8125 145.292969 181.355469 145.539062 180.886719 C 145.789062 180.417969 146.011719 179.9375 146.214844 179.445312 C 146.414062 178.953125 146.59375 178.453125 146.746094 177.941406 C 146.898438 177.433594 147.023438 176.917969 147.125 176.398438 C 147.230469 175.875 147.304688 175.351562 147.355469 174.820312 C 147.40625 174.292969 147.429688 173.761719 147.429688 173.230469 Z M 147.429688 173.230469 " fill-opacity="1" fill-rule="nonzero"></path><path fill="#bf1a21" d="M 309.695312 258.957031 L 309.695312 301.953125 L 270.0625 301.953125 C 269.097656 301.953125 268.140625 302.046875 267.195312 302.234375 C 266.246094 302.425781 265.328125 302.703125 264.433594 303.074219 C 263.542969 303.441406 262.695312 303.894531 261.890625 304.433594 C 261.089844 304.96875 260.34375 305.578125 259.664062 306.261719 C 258.980469 306.945312 258.371094 307.6875 257.832031 308.492188 C 257.296875 309.292969 256.84375 310.140625 256.472656 311.035156 C 256.105469 311.925781 255.824219 312.847656 255.636719 313.792969 C 255.449219 314.742188 255.355469 315.699219 255.355469 316.664062 C 255.355469 317.628906 255.453125 318.582031 255.644531 319.527344 C 255.832031 320.472656 256.113281 321.390625 256.484375 322.28125 C 256.855469 323.171875 257.308594 324.015625 257.847656 324.816406 C 258.382812 325.617188 258.992188 326.359375 259.675781 327.039062 C 260.359375 327.722656 261.101562 328.328125 261.902344 328.863281 C 262.707031 329.398438 263.550781 329.851562 264.441406 330.21875 C 265.335938 330.585938 266.253906 330.867188 267.199219 331.054688 C 268.144531 331.242188 269.101562 331.335938 270.0625 331.335938 L 306.59375 331.335938 C 307.769531 331.335938 308.941406 331.277344 310.109375 331.164062 C 311.277344 331.046875 312.4375 330.875 313.589844 330.644531 C 314.742188 330.417969 315.882812 330.132812 317.007812 329.789062 C 318.128906 329.449219 319.234375 329.054688 320.320312 328.601562 C 321.40625 328.152344 322.464844 327.652344 323.503906 327.097656 C 324.539062 326.542969 325.542969 325.9375 326.523438 325.285156 C 327.5 324.632812 328.441406 323.933594 329.347656 323.1875 C 330.257812 322.441406 331.125 321.652344 331.957031 320.824219 C 332.785156 319.992188 333.574219 319.121094 334.316406 318.210938 C 335.0625 317.304688 335.761719 316.359375 336.414062 315.382812 C 337.066406 314.40625 337.667969 313.398438 338.222656 312.363281 C 338.773438 311.328125 339.273438 310.265625 339.722656 309.179688 C 340.171875 308.09375 340.566406 306.988281 340.90625 305.863281 C 341.246094 304.738281 341.53125 303.601562 341.757812 302.449219 C 341.988281 301.296875 342.160156 300.132812 342.273438 298.964844 C 342.386719 297.796875 342.441406 296.625 342.441406 295.449219 L 342.441406 258.957031 C 342.441406 258.421875 342.414062 257.890625 342.363281 257.359375 C 342.3125 256.828125 342.234375 256.300781 342.128906 255.777344 C 342.023438 255.253906 341.894531 254.738281 341.738281 254.226562 C 341.585938 253.714844 341.40625 253.214844 341.203125 252.71875 C 340.996094 252.226562 340.769531 251.746094 340.515625 251.273438 C 340.265625 250.804688 339.992188 250.347656 339.695312 249.902344 C 339.398438 249.457031 339.082031 249.03125 338.742188 248.617188 C 338.402344 248.207031 338.046875 247.808594 337.667969 247.433594 C 337.289062 247.054688 336.894531 246.699219 336.484375 246.359375 C 336.070312 246.019531 335.640625 245.703125 335.199219 245.40625 C 334.753906 245.109375 334.296875 244.835938 333.828125 244.582031 C 333.355469 244.332031 332.875 244.105469 332.378906 243.898438 C 331.886719 243.695312 331.386719 243.515625 330.875 243.359375 C 330.363281 243.207031 329.847656 243.078125 329.324219 242.972656 C 328.800781 242.867188 328.273438 242.789062 327.742188 242.738281 C 327.210938 242.683594 326.675781 242.660156 326.144531 242.660156 C 325.605469 242.652344 325.070312 242.675781 324.535156 242.722656 C 324 242.773438 323.46875 242.847656 322.941406 242.945312 C 322.414062 243.046875 321.894531 243.171875 321.378906 243.324219 C 320.863281 243.476562 320.359375 243.652344 319.859375 243.855469 C 319.363281 244.058594 318.875 244.285156 318.402344 244.535156 C 317.925781 244.785156 317.464844 245.058594 317.015625 245.351562 C 316.566406 245.648438 316.136719 245.964844 315.71875 246.304688 C 315.300781 246.644531 314.902344 247 314.519531 247.378906 C 314.140625 247.757812 313.777344 248.152344 313.433594 248.566406 C 313.09375 248.980469 312.773438 249.410156 312.472656 249.855469 C 312.171875 250.300781 311.894531 250.761719 311.640625 251.234375 C 311.386719 251.707031 311.15625 252.191406 310.949219 252.683594 C 310.742188 253.179688 310.5625 253.683594 310.402344 254.199219 C 310.246094 254.710938 310.117188 255.234375 310.011719 255.757812 C 309.90625 256.285156 309.828125 256.816406 309.773438 257.351562 C 309.71875 257.886719 309.695312 258.421875 309.695312 258.957031 Z M 309.695312 258.957031 " fill-opacity="1" fill-rule="nonzero"></path><g fill="#ffffff" fill-opacity="1"><g transform="translate(454.79448, 168.265942)"><g><path d="M 84.875 -112.5625 L 84.875 -91.15625 L 36.703125 -91.15625 L 36.703125 -65.609375 L 78.453125 -65.609375 L 78.453125 -44.203125 L 36.703125 -44.203125 L 36.703125 0 L 14.53125 0 L 14.53125 -112.5625 Z M 84.875 -112.5625 "></path></g></g></g><g fill="#ffffff" fill-opacity="1"><g transform="translate(546.552018, 168.265942)"><g><path d="M 91.296875 -112.5625 L 91.296875 -91.15625 L 36.703125 -91.15625 L 36.703125 -67.140625 L 85.03125 -67.140625 L 85.03125 -45.734375 L 36.703125 -45.734375 L 36.703125 -21.40625 L 93.4375 -21.40625 L 93.4375 0 L 14.53125 0 L 14.53125 -112.5625 Z M 91.296875 -112.5625 "></path></g></g></g><g fill="#ffffff" fill-opacity="1"><g transform="translate(648.402864, 168.265942)"><g><path d="M 14.53125 -112.5625 L 48.171875 -112.5625 C 62.546875 -112.5625 74.375 -109.78125 83.65625 -104.21875 C 92.9375 -98.664062 99.691406 -91.476562 103.921875 -82.65625 C 108.148438 -73.84375 110.265625 -64.390625 110.265625 -54.296875 C 110.265625 -43.484375 107.710938 -33.945312 102.609375 -25.6875 C 97.515625 -17.4375 90.660156 -11.09375 82.046875 -6.65625 C 73.429688 -2.21875 63.976562 0 53.6875 0 L 14.53125 0 Z M 49.859375 -21.40625 C 61.378906 -21.40625 70.503906 -24.363281 77.234375 -30.28125 C 83.960938 -36.195312 87.328125 -44.710938 87.328125 -55.828125 C 87.328125 -64.796875 85.460938 -71.929688 81.734375 -77.234375 C 78.015625 -82.535156 73.679688 -86.203125 68.734375 -88.234375 C 63.796875 -90.273438 59.132812 -91.296875 54.75 -91.296875 L 36.703125 -91.296875 L 36.703125 -21.40625 Z M 49.859375 -21.40625 "></path></g></g></g><g fill="#ffffff" fill-opacity="1"><g transform="translate(766.311252, 168.265942)"><g><path d="M 91.296875 -112.5625 L 91.296875 -91.15625 L 36.703125 -91.15625 L 36.703125 -67.140625 L 85.03125 -67.140625 L 85.03125 -45.734375 L 36.703125 -45.734375 L 36.703125 -21.40625 L 93.4375 -21.40625 L 93.4375 0 L 14.53125 0 L 14.53125 -112.5625 Z M 91.296875 -112.5625 "></path></g></g></g><g fill="#ffffff" fill-opacity="1"><g transform="translate(868.162098, 168.265942)"><g><path d="M 75.25 0 L 51.546875 -35.78125 L 36.703125 -35.78125 L 36.703125 0 L 14.53125 0 L 14.53125 -112.5625 L 48.640625 -112.5625 C 62.609375 -112.5625 73.441406 -109.171875 81.140625 -102.390625 C 88.835938 -95.609375 92.6875 -86.359375 92.6875 -74.640625 C 92.6875 -67.703125 91.234375 -61.195312 88.328125 -55.125 C 85.421875 -49.0625 80.957031 -44.296875 74.9375 -40.828125 L 101.09375 0 Z M 36.703125 -57.203125 L 52.453125 -57.203125 C 58.472656 -57.203125 62.859375 -58.957031 65.609375 -62.46875 C 68.359375 -65.988281 69.734375 -69.789062 69.734375 -73.875 C 69.734375 -77.945312 68.5625 -81.84375 66.21875 -85.5625 C 63.875 -89.289062 59.335938 -91.15625 52.609375 -91.15625 L 36.703125 -91.15625 Z M 36.703125 -57.203125 "></path></g></g></g><g fill="#ffffff" fill-opacity="1"><g transform="translate(973.071581, 168.265942)"><g><path d="M 70.203125 -22.015625 L 32.875 -22.015625 L 23.703125 0 L 1.828125 0 L 52.609375 -117 L 53.828125 -117 L 104.609375 0 L 78.921875 0 Z M 62.859375 -40.6875 L 52 -68.0625 L 40.6875 -40.6875 Z M 62.859375 -40.6875 "></path></g></g></g><g fill="#ffffff" fill-opacity="1"><g transform="translate(1079.510262, 168.265942)"><g><path d="M 36.703125 -112.5625 L 36.703125 -21.40625 L 89.625 -21.40625 L 89.625 0 L 14.53125 0 L 14.53125 -112.5625 Z M 36.703125 -112.5625 "></path></g></g></g><g fill="#ffffff" fill-opacity="1"><g transform="translate(454.79448, 325.934755)"><g><path d="M 76.6875 -101.703125 L 76.6875 -82.359375 L 33.171875 -82.359375 L 33.171875 -59.28125 L 70.890625 -59.28125 L 70.890625 -39.9375 L 33.171875 -39.9375 L 33.171875 0 L 13.125 0 L 13.125 -101.703125 Z M 76.6875 -101.703125 "></path></g></g></g><g fill="#ffffff" fill-opacity="1"><g transform="translate(537.687835, 325.934755)"><g><path d="M 33.171875 -101.703125 L 33.171875 0 L 13.125 0 L 13.125 -101.703125 Z M 33.171875 -101.703125 "></path></g></g></g><g fill="#ffffff" fill-opacity="1"><g transform="translate(583.969918, 325.934755)"><g><path d="M 70.890625 0 L 48.09375 -35.09375 L 28.328125 0 L 3.453125 0 L 36.765625 -52.515625 L 4.84375 -101.703125 L 30.40625 -101.703125 L 52.375 -67.984375 L 71.4375 -101.703125 L 95.765625 -101.703125 L 63.421875 -51.125 L 96.734375 0 Z M 70.890625 0 "></path></g></g></g></svg>